<?xml version="1.0" encoding="UTF-8" standalone="no"?>
<svg
   xmlns:dc="http://purl.org/dc/elements/1.1/"
   xmlns:cc="http://creativecommons.org/ns#"
   xmlns:rdf="http://www.w3.org/1999/02/22-rdf-syntax-ns#"
   xmlns:svg="http://www.w3.org/2000/svg"
   xmlns="http://www.w3.org/2000/svg"
   xmlns:sodipodi="http://sodipodi.sourceforge.net/DTD/sodipodi-0.dtd"
   xmlns:inkscape="http://www.inkscape.org/namespaces/inkscape"
   width="32px"
   height="32px"
   viewBox="0 0 32 32"
   version="1.1"
   id="svg7"
   sodipodi:docname="gear.svg"
   inkscape:version="0.92.5 (2060ec1f9f, 2020-04-08)">
  <metadata
     id="metadata13">
    <rdf:RDF>
      <cc:Work
         rdf:about="">
        <dc:format>image/svg+xml</dc:format>
        <dc:type
           rdf:resource="http://purl.org/dc/dcmitype/StillImage" />
      </cc:Work>
    </rdf:RDF>
  </metadata>
  <defs
     id="defs11" />
  <sodipodi:namedview
     pagecolor="#ffffff"
     bordercolor="#666666"
     borderopacity="1"
     objecttolerance="10"
     gridtolerance="10"
     guidetolerance="10"
     inkscape:pageopacity="0"
     inkscape:pageshadow="2"
     inkscape:window-width="1280"
     inkscape:window-height="669"
     id="namedview9"
     showgrid="false"
     inkscape:zoom="14.634766"
     inkscape:cx="7.5611904"
     inkscape:cy="16"
     inkscape:window-x="0"
     inkscape:window-y="0"
     inkscape:window-maximized="1"
     inkscape:current-layer="svg7" />
  <title
     id="title2" />
  <g
     id="setting"
     style="fill:#ffffff">
    <path
       d="M28,13H26.59a11.34,11.34,0,0,0-1-2.36l1-1a3,3,0,0,0,0-4.25,3.09,3.09,0,0,0-4.25,0l-1,1a11.34,11.34,0,0,0-2.36-1V4a3,3,0,0,0-3-3,3,3,0,0,0-3,3V5.41a11.34,11.34,0,0,0-2.36,1l-1-1a3.1,3.1,0,0,0-4.25,0,3,3,0,0,0,0,4.25l1,1a11.34,11.34,0,0,0-1,2.36H4a3,3,0,0,0-3,3,3,3,0,0,0,3,3H5.41a11.34,11.34,0,0,0,1,2.36l-1,1a3,3,0,0,0,0,4.25,3.09,3.09,0,0,0,4.25,0l1-1a11.34,11.34,0,0,0,2.36,1V28a3,3,0,0,0,6,0V26.59a11.34,11.34,0,0,0,2.36-1l1,1a3.09,3.09,0,0,0,4.25,0,3,3,0,0,0,0-4.25l-1-1a11.34,11.34,0,0,0,1-2.36H28a3,3,0,0,0,0-6Zm-7.66,4.16a4.31,4.31,0,0,1-.45,1.1,4.5,4.5,0,0,1-1.64,1.63,4.09,4.09,0,0,1-1.09.45,4.28,4.28,0,0,1-2.32,0,4.31,4.31,0,0,1-1.1-.45,4.5,4.5,0,0,1-1.63-1.64,4.09,4.09,0,0,1-.45-1.09,4.29,4.29,0,0,1,0-2.32,4.37,4.37,0,0,1,.45-1.1,4.5,4.5,0,0,1,1.64-1.63,4.09,4.09,0,0,1,1.09-.45,4.35,4.35,0,0,1,2.32,0,4.31,4.31,0,0,1,1.1.45,4.5,4.5,0,0,1,1.63,1.64,4.09,4.09,0,0,1,.45,1.09,4.28,4.28,0,0,1,0,2.32Z"
       id="path4"
       style="fill:#ffffff" />
  </g>
</svg>
